<svg width="393" height="160" viewBox="26 0 393 160" fill="none" xmlns="http://www.w3.org/2000/svg">
<rect width="393" height="160" fill="#FF0000"/>
<g clip-path="url(#clip0_1_440)">
<path d="M159.229 76.8711C158.509 74.1651 156.393 72.0386 153.7 71.3142C148.825 70 129.268 70 129.268 70C129.268 70 109.711 70 104.836 71.3142C102.144 72.0386 100.028 74.1651 99.3076 76.8711C98 81.7709 98 92 98 92C98 92 98 102.229 99.3076 107.129C100.028 109.835 102.144 111.961 104.836 112.686C109.711 114 129.268 114 129.268 114C129.268 114 148.825 114 153.7 112.686C156.393 111.961 158.509 109.835 159.229 107.129C160.537 102.229 160.537 92 160.537 92C160.537 92 160.532 81.7709 159.229 76.8711Z" fill="white"/>
<path d="M123.009 101.428L139.256 92.0009L123.009 82.5737V101.428Z" fill="#FF0000"/>
<path d="M173.741 98.6079L166.719 73.1206H172.845L175.306 84.6742C175.934 87.5199 176.392 89.9466 176.691 91.9541H176.871C177.077 90.5157 177.54 88.1046 178.256 84.7156L180.804 73.1206H186.93L179.82 98.6079V110.834H173.736V98.6079H173.741Z" fill="white"/>
<path d="M188.773 110.026C187.537 109.188 186.657 107.884 186.132 106.115C185.612 104.345 185.349 101.996 185.349 99.0572V95.0576C185.349 92.0929 185.648 89.7077 186.245 87.9123C186.842 86.1169 187.774 84.8027 189.04 83.9801C190.307 83.1574 191.969 82.7435 194.029 82.7435C196.057 82.7435 197.678 83.1626 198.904 84.0008C200.124 84.8389 201.019 86.1532 201.586 87.933C202.152 89.7181 202.435 92.0929 202.435 95.0576V99.0572C202.435 101.996 202.157 104.355 201.606 106.135C201.056 107.92 200.16 109.224 198.924 110.047C197.689 110.87 196.011 111.283 193.895 111.283C191.712 111.289 190.008 110.864 188.773 110.026ZM195.702 105.711C196.041 104.811 196.217 103.347 196.217 101.308V92.7243C196.217 90.7477 196.047 89.299 195.702 88.3883C195.357 87.4725 194.755 87.0172 193.89 87.0172C193.056 87.0172 192.464 87.4725 192.124 88.3883C191.779 89.3042 191.609 90.7477 191.609 92.7243V101.308C191.609 103.347 191.774 104.816 192.103 105.711C192.433 106.611 193.025 107.061 193.89 107.061C194.755 107.061 195.357 106.611 195.702 105.711Z" fill="white"/>
<path d="M222.363 110.839H217.534L216.999 107.466H216.865C215.552 110.012 213.585 111.284 210.96 111.284C209.143 111.284 207.799 110.684 206.934 109.489C206.07 108.289 205.637 106.416 205.637 103.87V83.2825H211.81V103.508C211.81 104.739 211.943 105.614 212.211 106.136C212.479 106.659 212.927 106.923 213.555 106.923C214.09 106.923 214.605 106.757 215.099 106.426C215.593 106.095 215.954 105.676 216.195 105.169V83.2773H222.363V110.839Z" fill="white"/>
<path d="M239.13 78.1127H233.004V110.838H226.965V78.1127H220.839V73.1249H239.13V78.1127Z" fill="white"/>
<path d="M254.017 110.839H249.188L248.653 107.466H248.519C247.206 110.012 245.24 111.284 242.614 111.284C240.797 111.284 239.454 110.684 238.589 109.489C237.724 108.289 237.291 106.416 237.291 103.87V83.2825H243.464V103.508C243.464 104.739 243.598 105.614 243.865 106.136C244.133 106.659 244.581 106.923 245.209 106.923C245.744 106.923 246.259 106.757 246.753 106.426C247.248 106.095 247.608 105.676 247.85 105.169V83.2773H254.017V110.839Z" fill="white"/>
<path d="M274.444 87.6851C274.068 85.9467 273.466 84.6894 272.632 83.9081C271.798 83.1268 270.65 82.7388 269.188 82.7388C268.056 82.7388 266.995 83.0596 266.012 83.7063C265.029 84.3531 264.267 85.1964 263.731 86.2468H263.685V71.7284H257.739V110.834H262.836L263.464 108.226H263.598C264.076 109.157 264.792 109.887 265.744 110.43C266.697 110.968 267.757 111.237 268.92 111.237C271.005 111.237 272.545 110.27 273.528 108.34C274.511 106.405 275.005 103.388 275.005 99.2802V94.9185C275.005 91.8399 274.815 89.4236 274.444 87.6851ZM268.787 98.9282C268.787 100.936 268.704 102.509 268.539 103.647C268.375 104.785 268.102 105.598 267.711 106.074C267.325 106.555 266.799 106.793 266.146 106.793C265.636 106.793 265.168 106.674 264.735 106.431C264.303 106.193 263.953 105.831 263.685 105.354V89.7134C263.891 88.9631 264.251 88.3526 264.761 87.8714C265.265 87.3902 265.821 87.1522 266.413 87.1522C267.042 87.1522 267.525 87.4006 267.865 87.8921C268.21 88.3888 268.447 89.2167 268.581 90.386C268.714 91.5553 268.781 93.2162 268.781 95.3737V98.9282H268.787Z" fill="white"/>
<path d="M283.762 100.517C283.762 102.286 283.813 103.611 283.916 104.496C284.019 105.38 284.235 106.022 284.565 106.431C284.894 106.834 285.399 107.036 286.083 107.036C287.005 107.036 287.643 106.674 287.983 105.955C288.328 105.235 288.513 104.035 288.544 102.359L293.867 102.674C293.898 102.912 293.913 103.243 293.913 103.662C293.913 106.208 293.218 108.112 291.834 109.369C290.449 110.627 288.487 111.258 285.955 111.258C282.912 111.258 280.781 110.301 279.561 108.381C278.336 106.462 277.728 103.497 277.728 99.4818V94.6699C277.728 90.536 278.362 87.5143 279.628 85.6103C280.894 83.7062 283.062 82.7542 286.135 82.7542C288.251 82.7542 289.877 83.1423 291.01 83.9236C292.142 84.7048 292.94 85.9155 293.404 87.5661C293.867 89.2166 294.099 91.4932 294.099 94.4009V99.1197H283.762V100.517ZM284.544 87.5299C284.23 87.9179 284.024 88.5543 283.916 89.4391C283.813 90.3238 283.762 91.6639 283.762 93.4646V95.441H288.276V93.4646C288.276 91.6949 288.215 90.3549 288.096 89.4391C287.978 88.5233 287.762 87.8817 287.447 87.504C287.134 87.1315 286.65 86.94 285.996 86.94C285.337 86.9452 284.853 87.1418 284.544 87.5299Z" fill="white"/>
</g>
<defs>
<clipPath id="clip0_1_440">
<rect width="197" height="44" fill="white" transform="translate(98 70)"/>
</clipPath>
</defs>
</svg>
