<svg width="20" height="20" viewBox="0 0 20 20" fill="none" xmlns="http://www.w3.org/2000/svg">
<path fill-rule="evenodd" clip-rule="evenodd" d="M5.43456 2.11728C6.62106 1.92635 8.12322 1.87497 10 1.87497C11.8768 1.87497 13.3789 1.92635 14.5654 2.11728C15.7529 2.30836 16.6981 2.64979 17.3996 3.28751C18.1089 3.93236 18.4901 4.80752 18.6997 5.89758C18.9073 6.9773 18.9583 8.33233 18.9583 9.99999C18.9583 11.6677 18.9073 13.0227 18.6997 14.1024C18.4901 15.1925 18.1089 16.0676 17.3996 16.7125C16.6981 17.3502 15.7529 17.6916 14.5654 17.8827C13.3789 18.0736 11.8768 18.125 10 18.125C8.12322 18.125 6.62106 18.0736 5.43456 17.8827C4.24715 17.6916 3.3019 17.3502 2.60041 16.7125C1.89108 16.0676 1.50994 15.1925 1.30031 14.1024C1.09267 13.0227 1.04167 11.6677 1.04167 9.99999C1.04167 8.33233 1.09267 6.9773 1.30031 5.89758C1.50994 4.80752 1.89108 3.93236 2.60041 3.28751C3.3019 2.64979 4.24715 2.30836 5.43456 2.11728ZM8.0254 6.9561C8.22134 6.84516 8.46181 6.84819 8.65489 6.96404L12.8216 9.46404C13.0098 9.57699 13.125 9.78044 13.125 9.99997C13.125 10.2195 13.0098 10.423 12.8216 10.5359L8.65489 13.0359C8.46181 13.1518 8.22134 13.1548 8.0254 13.0438C7.82945 12.9329 7.70833 12.7251 7.70833 12.5V7.49997C7.70833 7.2748 7.82945 7.06704 8.0254 6.9561Z" fill="#FF0000"/>
</svg>
